PathFileType	4	(X/Y/Z)	./resultDataOpenSim/trcMotMarkerGrf/sub09/qtm-12-02.trc
DataRate	CameraRate	NumFrames	NumMarkers	Units	OrigDataRate	OrigDataStartFrame	OrigNumFrames
250.000000	250.000000	11	24	m	250.000000	362	482
Frame#	Time	L.Toe.Tip			R.Toe.Tip			L.Ankle.Lat			R.Ankle.Lat			L.Ankle.Med			R.Ankle.Med			L.Heel			R.Heel			L.Knee.Lat			R.Knee.Lat			L.Knee.Med			R.Knee.Med			L.Thigh.Upper			R.Thigh.Upper			L.ASIS			R.ASIS			V.Sacral			L.Acromium			R.Acromium			C7			L.Elbow			R.Elbow			L.Wrist.Lat			R.Wrist.Lat
		X1	Y1	Z1	X2	Y2	Z2	X3	Y3	Z3	X4	Y4	Z4	X5	Y5	Z5	X6	Y6	Z6	X7	Y7	Z7	X8	Y8	Z8	X9	Y9	Z9	X10	Y10	Z10	X11	Y11	Z11	X12	Y12	Z12	X13	Y13	Z13	X14	Y14	Z14	X15	Y15	Z15	X16	Y16	Z16	X17	Y17	Z17	X18	Y18	Z18	X19	Y19	Z19	X20	Y20	Z20	X21	Y21	Z21	X22	Y22	Z22	X23	Y23	Z23	X24	Y24	Z24

362	1.444	0.96968228	0.090194472	-0.079837688	1.062524	0.038996597	0.050371831	0.86871206	0.20621777	-0.11122294	0.91595942	0.056292354	0.093040643	0.89939234	0.20354678	-0.017101494	0.92699992	0.097029662	0.00088137077	0.78899373	0.21100631	-0.063432782	0.84512472	0.036381677	0.048586032	1.1338714	0.5196865	-0.13425632	1.0310725	0.50084982	0.13993695	1.1360975	0.51278389	-0.0081282193	1.003964	0.49090445	0.015734894	0.94226047	0.88641864	-0.16832533	0.95655437	0.90341945	0.20185767	1.014414	0.97618716	-0.11463105	1.0363052	0.98759222	0.12238203	0.85574297	1.0364122	0.013387082	1.0213626	1.4243423	-0.17755701	1.0188246	1.4500656	0.15185719	0.9543056	1.4877346	-0.012068385	0.84513406	1.0980681	-0.22550339	0.8698646	1.1159944	0.26204493	0.98142407	0.86620405	-0.24403603	1.0640961	0.91658215	0.26355732
363	1.448	0.98920353	0.088871917	-0.080953138	1.06271	0.039000719	0.050260367	0.8846535	0.20169019	-0.11129206	0.91606333	0.056405238	0.092948461	0.91569178	0.19953635	-0.017258187	0.92717105	0.097116032	0.00080418545	0.80508171	0.20404175	-0.063311817	0.84519711	0.036577399	0.048497747	1.1423965	0.52193082	-0.13442647	1.0332312	0.50065137	0.13981309	1.1438427	0.51517064	-0.0087234157	1.0057866	0.49001647	0.015768643	0.9479818	0.88737008	-0.16894449	0.96076116	0.90353389	0.201828	1.0199878	0.97703523	-0.11495906	1.0414349	0.98805716	0.12211496	0.86086754	1.0370013	0.012893037	1.0263941	1.424925	-0.17797914	1.0241637	1.4508218	0.15140211	0.95946834	1.4883709	-0.012464527	0.84987711	1.0991894	-0.22525874	0.87536839	1.1166654	0.26204093	0.98515423	0.86683823	-0.24480697	1.070629	0.91817954	0.26269959
364	1.452	1.0086768	0.087566706	-0.081983477	1.0629097	0.038997968	0.050150159	0.90074584	0.1970784	-0.1113778	0.91617772	0.056519978	0.092841225	0.93210489	0.19550079	-0.017426368	0.9271457	0.097149049	0.00063524019	0.82130807	0.19697497	-0.063177513	0.84521502	0.036807473	0.048340485	1.1507757	0.52394599	-0.13467913	1.0352939	0.50045625	0.13970357	1.1514127	0.51732022	-0.0092468312	1.0077401	0.48924859	0.015775431	0.95368577	0.88823812	-0.1695471	0.96526282	0.90374934	0.20161593	1.0254933	0.97781511	-0.11527158	1.0465771	0.98848447	0.12183809	0.86619698	1.037475	0.012260757	1.0314244	1.4254541	-0.17839757	1.0294423	1.4515143	0.15098053	0.96462443	1.4889568	-0.012855164	0.85452064	1.1001686	-0.22516097	0.88088863	1.1172709	0.26203737	0.98891401	0.86741217	-0.24556681	1.0771266	0.91968529	0.26184296
365	1.456	1.0281248	0.086297819	-0.082907462	1.0630614	0.038975891	0.050065454	0.91699131	0.19239936	-0.11147702	0.91629771	0.056638889	0.092713763	0.94865035	0.19143709	-0.01761324	0.92698836	0.097155467	0.00041278511	0.83768794	0.18982464	-0.063042498	0.84522182	0.037050682	0.048154819	1.158888	0.52573097	-0.13506458	1.037078	0.50027283	0.13962478	1.1588955	0.51921821	-0.0096451434	1.009533	0.48879028	0.015757665	0.9593595	0.88901704	-0.17012519	0.97003766	0.90406067	0.20123452	1.0309716	0.97852835	-0.11557959	1.0517307	0.98887371	0.12155537	0.87190095	1.037867	0.011467793	1.0364552	1.4259334	-0.17881036	1.0346919	1.4521466	0.15057107	0.96977662	1.4894948	-0.013238868	0.85905436	1.1010144	-0.22521483	0.88641921	1.1178088	0.26202877	0.9927049	0.86792628	-0.24631395	1.0835911	0.92110093	0.26098662
366	1.46	1.047625	0.085101798	-0.083725495	1.0631533	0.038941735	0.050009888	0.93339372	0.18765546	-0.11159583	0.91642077	0.056768012	0.09256667	0.96531117	0.18735977	-0.017822134	0.92685993	0.097195777	0.00021144776	0.85424075	0.18261489	-0.062929345	0.84524465	0.037310037	0.047974247	1.1666787	0.52732025	-0.13556973	1.0385052	0.50010693	0.1395837	1.1665841	0.52091009	-0.010001831	1.0110771	0.48857624	0.015721596	0.96499615	0.88970671	-0.17068	0.97484158	0.90440193	0.20080114	1.0364541	0.97917488	-0.11589289	1.0568884	0.98922131	0.12126831	0.87794641	1.0382131	0.010557668	1.0414831	1.426366	-0.17922051	1.0399238	1.4527269	0.15016771	0.97492032	1.4899776	-0.01361631	0.86354495	1.1017673	-0.22534909	0.89195616	1.1182795	0.26200862	0.9965311	0.86837833	-0.24705174	1.0900281	0.92242958	0.26013342
367	1.464	1.067228	0.084007063	-0.08446314	1.0632227	0.038913955	0.049974738	0.94994566	0.1828443	-0.11173942	0.91653628	0.056912499	0.092409336	0.98207819	0.1832935	-0.018071982	0.92683681	0.097307706	6.2414637e-05	0.87097842	0.17537029	-0.06285619	0.84528394	0.037593755	0.047803896	1.1742671	0.52877011	-0.136108	1.0396253	0.49996474	0.13957896	1.1750144	0.52245926	-0.010486735	1.0124759	0.48847298	0.015673862	0.97060847	0.89031184	-0.17122411	0.97925622	0.90471804	0.20044923	1.0419643	0.9797523	-0.11622794	1.062043	0.98952597	0.12097732	0.88402681	1.0385372	0.009648797	1.0465047	1.4267529	-0.17963423	1.0451535	1.4532668	0.14976623	0.9800495	1.4903974	-0.013986016	0.86805742	1.1024552	-0.22550152	0.89749498	1.1186812	0.26196915	1.0003932	0.86876674	-0.24778591	1.0964398	0.92367233	0.25928561
368	1.468	1.0869069	0.083005295	-0.085148891	1.0633014	0.038906104	0.049961184	0.96662219	0.17797583	-0.11189499	0.91662628	0.05707455	0.09225361	0.9989881	0.17925608	-0.018390862	0.92690795	0.097490532	-4.7970017e-05	0.88791364	0.168109	-0.062827935	0.84530613	0.037903599	0.047608412	1.1818012	0.5301204	-0.13660688	1.0405935	0.49984601	0.13960455	1.1844135	0.52388138	-0.011187254	1.0138604	0.48840859	0.01561683	0.9762234	0.89083309	-0.17177125	0.98283548	0.90498237	0.20028318	1.0475167	0.98025284	-0.1165954	1.067192	0.98978729	0.12068476	0.88981966	1.0388471	0.00885548	1.051521	1.4270937	-0.1800553	1.0503979	1.4537801	0.14935856	0.98516812	1.4907549	-0.014350308	0.87262085	1.1030814	-0.22564781	0.90303253	1.1190118	0.26190827	1.0042858	0.86909162	-0.24851701	1.1028216	0.92482526	0.25844213
369	1.472	1.1066195	0.082063483	-0.085792387	1.0633861	0.038927088	0.049984675	0.98341164	0.17306539	-0.11204335	0.91667944	0.057255762	0.092106652	1.0160878	0.17525514	-0.018782944	0.92704881	0.097710927	-0.00012912147	0.90508631	0.16082782	-0.062812411	0.84526283	0.03824361	0.047337912	1.1892473	0.5313687	-0.13708115	1.0416193	0.49973714	0.13964181	1.1940909	0.52514613	-0.012016539	1.0152855	0.48838002	0.015553006	0.98186237	0.89126458	-0.17232567	0.98559079	0.90519624	0.20029505	1.0531106	0.98066999	-0.11698451	1.0723334	0.99000208	0.12039777	0.89526369	1.0391339	0.0081992993	1.0565364	1.4273874	-0.18048021	1.0556564	1.4542666	0.14894019	0.9902832	1.4910551	-0.014718439	0.87722723	1.1036414	-0.22578907	0.90857114	1.1192713	0.26183048	1.0082028	0.8693543	-0.24923844	1.1091683	0.92588329	0.25760222
370	1.476	1.1263623	0.081161593	-0.08639075	1.0634609	0.038984046	0.050050592	1.0003413	0.16811806	-0.11217804	0.91670201	0.057455026	0.091970854	1.0333784	0.17129274	-0.019204367	0.92724144	0.097919049	-0.0001584013	0.92259696	0.15348234	-0.062711717	0.84514057	0.038617395	0.046982577	1.1964167	0.53249026	-0.13759848	1.0428909	0.4996118	0.13965673	1.2030203	0.5262272	-0.012824214	1.0167451	0.48839403	0.015489009	0.98753425	0.89160194	-0.17288639	0.98831146	0.90539074	0.20031231	1.0587296	0.9810081	-0.11737272	1.0774643	0.99016946	0.12012448	0.90050917	1.0393786	0.0076277573	1.0615543	1.4276324	-0.1809006	1.0609092	1.4546972	0.14851632	0.99540011	1.4913104	-0.015093286	0.8818549	1.1041377	-0.22593299	0.91411762	1.1194615	0.26173945	1.012143	0.86955782	-0.24994645	1.1154812	0.92684697	0.25676877
371	1.48	1.146149	0.080303938	-0.08694735	1.0635208	0.039053619	0.050128544	1.0174415	0.16314643	-0.11230094	0.91671789	0.057661891	0.091845649	1.0508151	0.16736626	-0.019571643	0.92750881	0.098082222	-9.7879683e-05	0.9405881	0.14599972	-0.062385425	0.84499543	0.039008346	0.046599196	1.2031866	0.53345673	-0.13819693	1.044441	0.49944238	0.13963431	1.2108832	0.52712398	-0.01355293	1.0182547	0.4884113	0.015438304	0.9932399	0.89184669	-0.17345311	0.99190481	0.90561173	0.2001388	1.0643568	0.98127586	-0.11775071	1.0825851	0.99029885	0.11986469	0.90571196	1.0395582	0.0070811427	1.0665739	1.4278286	-0.18131214	1.0661372	1.4550376	0.14809652	1.0005233	1.49154	-0.015470077	0.88650001	1.1045734	-0.22608402	0.91967563	1.1195852	0.26163402	1.0161114	0.86970496	-0.25064633	1.1217697	0.92772228	0.25594458
372	1.484	1.1659758	0.079511373	-0.087477113	1.0635565	0.039074759	0.050174512	1.0347069	0.15818944	-0.11241675	0.91675637	0.057858813	0.091724041	1.0683464	0.1634753	-0.019831373	0.92791749	0.0982071	4.3295173e-05	0.95908266	0.13838219	-0.061789891	0.84490821	0.039379548	0.046252813	1.2096409	0.5342325	-0.13885745	1.0461171	0.49922069	0.13960484	1.2180241	0.52784008	-0.014241893	1.019875	0.48836323	0.015406156	0.99898277	0.89200392	-0.1740288	0.99651446	0.90588543	0.19973575	1.0699933	0.98147432	-0.11812737	1.087703	0.9904049	0.11960967	0.91094259	1.0396563	0.0065171743	1.07159	1.4279797	-0.18172249	1.0713334	1.4552818	0.1476836	1.0056412	1.4917425	-0.015853941	0.89118174	1.1049436	-0.22624414	0.92523951	1.1196454	0.26150956	1.0201142	0.86979531	-0.25134366	1.128049	0.92851535	0.25512777
